# xmcd
#
# Track frame offsets:
# 150
# 13185
# 29792
#
# Disc length: 616 seconds
#
#
# Revision: 2
# Processed by: cddbd v1.5.2PL0 Copyright (c) Steve Scherf et al.
# Submitted via: FreeRIP 2.951 
#
DISCID=22026603
DTITLE=Oh!Penelope - Happy Song
DYEAR=1995
DGENRE=J-POP
TTITLE0=Happy Song
TTITLE1=I Go To Life
TTITLE2=Kind of Funny (demo)
EXTD=
EXTT0=
EXTT1=
EXTT2=
PLAYORDER=
